<mxfile host="app.diagrams.net" modified="2023-04-11T01:27:15.286Z" agent="5.0 (Windows NT 10.0; Win64; x64) AppleWebKit/537.36 (KHTML, like Gecko) Chrome/112.0.0.0 Safari/537.36 Edg/112.0.1722.34" etag="eZ_w09bBI6xJPzW0b4cv" version="21.0.10" type="github">
  <diagram name="Página-1" id="vsVGZpnjvxE_ENfNlE_k">
    <mxGraphModel dx="1377" dy="796" grid="1" gridSize="10" guides="1" tooltips="1" connect="1" arrows="1" fold="1" page="1" pageScale="1" pageWidth="827" pageHeight="1169" math="0" shadow="0">
      <root>
        <mxCell id="0" />
        <mxCell id="1" parent="0" />
        <mxCell id="FmYQ0c0Ppn1lsgaGKw3m-1" value="CLIENTE&lt;br&gt;" style="shape=umlActor;html=1;verticalLabelPosition=bottom;verticalAlign=top;align=center;" vertex="1" parent="1">
          <mxGeometry x="80" y="230" width="60" height="90" as="geometry" />
        </mxCell>
        <mxCell id="FmYQ0c0Ppn1lsgaGKw3m-2" value="Registrar e manter cadeiras." style="ellipse;whiteSpace=wrap;html=1;" vertex="1" parent="1">
          <mxGeometry x="230" y="160" width="140" height="70" as="geometry" />
        </mxCell>
        <mxCell id="FmYQ0c0Ppn1lsgaGKw3m-3" value="Manter filmes." style="ellipse;whiteSpace=wrap;html=1;" vertex="1" parent="1">
          <mxGeometry x="230" y="360" width="140" height="70" as="geometry" />
        </mxCell>
        <mxCell id="FmYQ0c0Ppn1lsgaGKw3m-5" value="Manter/Comprar e vender ingressos" style="ellipse;whiteSpace=wrap;html=1;" vertex="1" parent="1">
          <mxGeometry x="230" y="250" width="140" height="70" as="geometry" />
        </mxCell>
        <mxCell id="FmYQ0c0Ppn1lsgaGKw3m-7" value="" style="endArrow=none;html=1;rounded=0;entryX=0;entryY=0.5;entryDx=0;entryDy=0;" edge="1" parent="1" target="FmYQ0c0Ppn1lsgaGKw3m-5">
          <mxGeometry width="50" height="50" relative="1" as="geometry">
            <mxPoint x="110" y="280" as="sourcePoint" />
            <mxPoint x="160" y="230" as="targetPoint" />
            <Array as="points" />
          </mxGeometry>
        </mxCell>
        <mxCell id="FmYQ0c0Ppn1lsgaGKw3m-8" value="FUNCIONÁRIO" style="shape=umlActor;verticalLabelPosition=bottom;verticalAlign=top;html=1;outlineConnect=0;" vertex="1" parent="1">
          <mxGeometry x="540" y="200" width="50" height="80" as="geometry" />
        </mxCell>
        <mxCell id="FmYQ0c0Ppn1lsgaGKw3m-14" value="" style="endArrow=none;html=1;rounded=0;exitX=1;exitY=1;exitDx=0;exitDy=0;" edge="1" parent="1" source="FmYQ0c0Ppn1lsgaGKw3m-2">
          <mxGeometry width="50" height="50" relative="1" as="geometry">
            <mxPoint x="490" y="290" as="sourcePoint" />
            <mxPoint x="540" y="240" as="targetPoint" />
          </mxGeometry>
        </mxCell>
        <mxCell id="FmYQ0c0Ppn1lsgaGKw3m-15" value="" style="endArrow=none;html=1;rounded=0;" edge="1" parent="1">
          <mxGeometry width="50" height="50" relative="1" as="geometry">
            <mxPoint x="370" y="290" as="sourcePoint" />
            <mxPoint x="540" y="240" as="targetPoint" />
          </mxGeometry>
        </mxCell>
        <mxCell id="FmYQ0c0Ppn1lsgaGKw3m-21" value="" style="endArrow=none;html=1;rounded=0;exitX=1;exitY=0.5;exitDx=0;exitDy=0;" edge="1" parent="1" source="FmYQ0c0Ppn1lsgaGKw3m-3">
          <mxGeometry width="50" height="50" relative="1" as="geometry">
            <mxPoint x="460" y="360" as="sourcePoint" />
            <mxPoint x="540" y="240" as="targetPoint" />
            <Array as="points" />
          </mxGeometry>
        </mxCell>
        <mxCell id="FmYQ0c0Ppn1lsgaGKw3m-23" value="CANDIDATO" style="shape=umlActor;verticalLabelPosition=bottom;verticalAlign=top;html=1;outlineConnect=0;" vertex="1" parent="1">
          <mxGeometry x="20" y="690" width="60" height="110" as="geometry" />
        </mxCell>
        <mxCell id="FmYQ0c0Ppn1lsgaGKw3m-24" value="SÓCIO" style="shape=umlActor;verticalLabelPosition=bottom;verticalAlign=top;html=1;outlineConnect=0;" vertex="1" parent="1">
          <mxGeometry x="540" y="770" width="60" height="110" as="geometry" />
        </mxCell>
        <mxCell id="FmYQ0c0Ppn1lsgaGKw3m-26" value="COMISSÃO NOMEADA&lt;br&gt;" style="shape=umlActor;verticalLabelPosition=bottom;verticalAlign=top;html=1;outlineConnect=0;" vertex="1" parent="1">
          <mxGeometry x="542.5" y="600" width="55" height="110" as="geometry" />
        </mxCell>
        <mxCell id="FmYQ0c0Ppn1lsgaGKw3m-47" style="edgeStyle=orthogonalEdgeStyle;rounded=0;orthogonalLoop=1;jettySize=auto;html=1;entryX=0.5;entryY=0;entryDx=0;entryDy=0;endArrow=open;endFill=0;" edge="1" parent="1" source="FmYQ0c0Ppn1lsgaGKw3m-27" target="FmYQ0c0Ppn1lsgaGKw3m-45">
          <mxGeometry relative="1" as="geometry" />
        </mxCell>
        <mxCell id="FmYQ0c0Ppn1lsgaGKw3m-27" value="SOLICITAR E MANTER CADASTRO" style="ellipse;whiteSpace=wrap;html=1;" vertex="1" parent="1">
          <mxGeometry x="230" y="610" width="140" height="70" as="geometry" />
        </mxCell>
        <mxCell id="FmYQ0c0Ppn1lsgaGKw3m-33" value="GERAR MENSALIDADE POR CATEGORIA E DEPENDENTES&lt;br&gt;" style="ellipse;whiteSpace=wrap;html=1;" vertex="1" parent="1">
          <mxGeometry x="230" y="940" width="140" height="70" as="geometry" />
        </mxCell>
        <mxCell id="FmYQ0c0Ppn1lsgaGKw3m-36" value="" style="edgeStyle=none;html=1;endArrow=none;verticalAlign=bottom;rounded=0;entryX=0;entryY=0.5;entryDx=0;entryDy=0;" edge="1" parent="1" target="FmYQ0c0Ppn1lsgaGKw3m-27">
          <mxGeometry width="160" relative="1" as="geometry">
            <mxPoint x="50" y="760" as="sourcePoint" />
            <mxPoint x="120" y="755" as="targetPoint" />
          </mxGeometry>
        </mxCell>
        <mxCell id="FmYQ0c0Ppn1lsgaGKw3m-38" value="" style="edgeStyle=none;html=1;endArrow=none;verticalAlign=bottom;rounded=0;exitX=1;exitY=0.5;exitDx=0;exitDy=0;" edge="1" parent="1" source="FmYQ0c0Ppn1lsgaGKw3m-27">
          <mxGeometry width="160" relative="1" as="geometry">
            <mxPoint x="360" y="820" as="sourcePoint" />
            <mxPoint x="530" y="650" as="targetPoint" />
          </mxGeometry>
        </mxCell>
        <mxCell id="FmYQ0c0Ppn1lsgaGKw3m-41" value="Manter salas." style="ellipse;whiteSpace=wrap;html=1;" vertex="1" parent="1">
          <mxGeometry x="390" y="410" width="140" height="70" as="geometry" />
        </mxCell>
        <mxCell id="FmYQ0c0Ppn1lsgaGKw3m-42" value="" style="endArrow=none;html=1;rounded=0;" edge="1" parent="1">
          <mxGeometry width="50" height="50" relative="1" as="geometry">
            <mxPoint x="470" y="410" as="sourcePoint" />
            <mxPoint x="540" y="240" as="targetPoint" />
          </mxGeometry>
        </mxCell>
        <mxCell id="FmYQ0c0Ppn1lsgaGKw3m-43" value="O CLUBE" style="shape=umlActor;verticalLabelPosition=bottom;verticalAlign=top;html=1;outlineConnect=0;" vertex="1" parent="1">
          <mxGeometry x="20" y="930" width="70" height="90" as="geometry" />
        </mxCell>
        <mxCell id="FmYQ0c0Ppn1lsgaGKw3m-44" value="" style="endArrow=none;html=1;rounded=0;entryX=0;entryY=0.5;entryDx=0;entryDy=0;" edge="1" parent="1" target="FmYQ0c0Ppn1lsgaGKw3m-33">
          <mxGeometry width="50" height="50" relative="1" as="geometry">
            <mxPoint x="80" y="980" as="sourcePoint" />
            <mxPoint x="130" y="930" as="targetPoint" />
          </mxGeometry>
        </mxCell>
        <mxCell id="FmYQ0c0Ppn1lsgaGKw3m-45" value="APROVAR CANDIDATO" style="ellipse;whiteSpace=wrap;html=1;" vertex="1" parent="1">
          <mxGeometry x="230" y="730" width="140" height="70" as="geometry" />
        </mxCell>
        <mxCell id="FmYQ0c0Ppn1lsgaGKw3m-46" value="" style="endArrow=none;html=1;rounded=0;exitX=1;exitY=0.5;exitDx=0;exitDy=0;" edge="1" parent="1" source="FmYQ0c0Ppn1lsgaGKw3m-45">
          <mxGeometry width="50" height="50" relative="1" as="geometry">
            <mxPoint x="390" y="840" as="sourcePoint" />
            <mxPoint x="530" y="650" as="targetPoint" />
          </mxGeometry>
        </mxCell>
        <mxCell id="FmYQ0c0Ppn1lsgaGKw3m-48" value="PAGAR MENSALIDADE" style="ellipse;whiteSpace=wrap;html=1;" vertex="1" parent="1">
          <mxGeometry x="230" y="830" width="140" height="70" as="geometry" />
        </mxCell>
        <mxCell id="FmYQ0c0Ppn1lsgaGKw3m-49" value="" style="endArrow=none;html=1;rounded=0;exitX=1;exitY=0.5;exitDx=0;exitDy=0;" edge="1" parent="1" source="FmYQ0c0Ppn1lsgaGKw3m-48" target="FmYQ0c0Ppn1lsgaGKw3m-24">
          <mxGeometry width="50" height="50" relative="1" as="geometry">
            <mxPoint x="370" y="870" as="sourcePoint" />
            <mxPoint x="420" y="820" as="targetPoint" />
          </mxGeometry>
        </mxCell>
        <mxCell id="FmYQ0c0Ppn1lsgaGKw3m-50" value="" style="endArrow=none;html=1;rounded=0;" edge="1" parent="1">
          <mxGeometry width="50" height="50" relative="1" as="geometry">
            <mxPoint x="370" y="970" as="sourcePoint" />
            <mxPoint x="540" y="830" as="targetPoint" />
            <Array as="points" />
          </mxGeometry>
        </mxCell>
      </root>
    </mxGraphModel>
  </diagram>
</mxfile>
